<mxfile host="app.diagrams.net" modified="2023-06-16T18:54:51.258Z" agent="Mozilla/5.0 (Windows NT 10.0; Win64; x64) AppleWebKit/537.36 (KHTML, like Gecko) Chrome/113.0.0.0 Safari/537.36" etag="iXvGnDRk3H7mqi6hpgzm" version="21.3.5" type="github">
  <diagram name="Lapa-1" id="iaABeEHk2dAt37TFWMJv">
    <mxGraphModel dx="797" dy="470" grid="1" gridSize="10" guides="1" tooltips="1" connect="1" arrows="1" fold="1" page="1" pageScale="1" pageWidth="1200" pageHeight="1600" math="0" shadow="0">
      <root>
        <mxCell id="0" />
        <mxCell id="1" parent="0" />
        <mxCell id="5OR2ersFxcuu6v94mTMg-23" value="" style="endArrow=none;dashed=1;html=1;rounded=0; fillColor=#60a917;strokeColor=#2D7600;" edge="1" parent="1">
          <mxGeometry width="50" height="50" relative="1" as="geometry">
            <mxPoint x="321" y="311" as="sourcePoint" />
            <mxPoint x="670" y="311" as="targetPoint" />
          </mxGeometry>
        </mxCell>
        <mxCell id="5OR2ersFxcuu6v94mTMg-13" value="" style="endArrow=none;dashed=1;html=1;rounded=0; fillColor=#60a917;strokeColor=#2D7600;" edge="1" parent="1">
          <mxGeometry width="50" height="50" relative="1" as="geometry">
            <mxPoint x="674" y="640" as="sourcePoint" />
            <mxPoint x="674" y="312" as="targetPoint" />
          </mxGeometry>
        </mxCell>
        <mxCell id="5OR2ersFxcuu6v94mTMg-22" value="" style="endArrow=none;dashed=1;html=1;rounded=0; fillColor=#0050ef;strokeColor=#001DBC;" edge="1" parent="1">
          <mxGeometry width="50" height="50" relative="1" as="geometry">
            <mxPoint x="320" y="456" as="sourcePoint" />
            <mxPoint x="606" y="456" as="targetPoint" />
          </mxGeometry>
        </mxCell>
        <mxCell id="5OR2ersFxcuu6v94mTMg-14" value="" style="endArrow=none;dashed=1;html=1;rounded=0; fillColor=#0050ef;strokeColor=#001DBC;" edge="1" parent="1">
          <mxGeometry width="50" height="50" relative="1" as="geometry">
            <mxPoint x="609" y="639" as="sourcePoint" />
            <mxPoint x="610" y="370" as="targetPoint" />
          </mxGeometry>
        </mxCell>
        <mxCell id="5OR2ersFxcuu6v94mTMg-21" value="" style="endArrow=none;dashed=1;html=1;rounded=0; fillColor=#0050ef;strokeColor=#001DBC;" edge="1" parent="1">
          <mxGeometry width="50" height="50" relative="1" as="geometry">
            <mxPoint x="320" y="370" as="sourcePoint" />
            <mxPoint x="609" y="370" as="targetPoint" />
          </mxGeometry>
        </mxCell>
        <mxCell id="5OR2ersFxcuu6v94mTMg-18" value="" style="endArrow=none;dashed=1;html=1;rounded=0; fillColor=#60a917;strokeColor=#6F0000;fillColor=#a20025;" edge="1" parent="1">
          <mxGeometry width="50" height="50" relative="1" as="geometry">
            <mxPoint x="748" y="640" as="sourcePoint" />
            <mxPoint x="750" y="242" as="targetPoint" />
          </mxGeometry>
        </mxCell>
        <mxCell id="5OR2ersFxcuu6v94mTMg-1" value="" style="endArrow=none;html=1;rounded=0;" edge="1" parent="1">
          <mxGeometry width="50" height="50" relative="1" as="geometry">
            <mxPoint x="320" y="640" as="sourcePoint" />
            <mxPoint x="320" y="40" as="targetPoint" />
          </mxGeometry>
        </mxCell>
        <mxCell id="5OR2ersFxcuu6v94mTMg-2" value="" style="endArrow=none;html=1;rounded=0;" edge="1" parent="1">
          <mxGeometry width="50" height="50" relative="1" as="geometry">
            <mxPoint x="320" y="640" as="sourcePoint" />
            <mxPoint x="1080" y="640" as="targetPoint" />
          </mxGeometry>
        </mxCell>
        <mxCell id="5OR2ersFxcuu6v94mTMg-3" value="&lt;font style=&quot;font-size: 18px;&quot;&gt;P ($US)&lt;/font&gt;" style="text;html=1;strokeColor=none;fillColor=none;align=center;verticalAlign=middle;whiteSpace=wrap;rounded=0;" vertex="1" parent="1">
          <mxGeometry x="230" y="30" width="80" height="30" as="geometry" />
        </mxCell>
        <mxCell id="5OR2ersFxcuu6v94mTMg-4" value="&lt;font style=&quot;font-size: 18px;&quot;&gt;Q (Newly installed solar systems)&lt;br&gt;&lt;/font&gt;" style="text;html=1;strokeColor=none;fillColor=none;align=center;verticalAlign=middle;whiteSpace=wrap;rounded=0;" vertex="1" parent="1">
          <mxGeometry x="970" y="660" width="180" height="30" as="geometry" />
        </mxCell>
        <mxCell id="5OR2ersFxcuu6v94mTMg-5" value="" style="endArrow=none;html=1;rounded=0;" edge="1" parent="1">
          <mxGeometry width="50" height="50" relative="1" as="geometry">
            <mxPoint x="360" y="600" as="sourcePoint" />
            <mxPoint x="880" y="120" as="targetPoint" />
          </mxGeometry>
        </mxCell>
        <mxCell id="5OR2ersFxcuu6v94mTMg-6" value="" style="endArrow=none;html=1;rounded=0;" edge="1" parent="1">
          <mxGeometry width="50" height="50" relative="1" as="geometry">
            <mxPoint x="360" y="320" as="sourcePoint" />
            <mxPoint x="800" y="560" as="targetPoint" />
          </mxGeometry>
        </mxCell>
        <mxCell id="5OR2ersFxcuu6v94mTMg-8" value="" style="endArrow=none;html=1;rounded=0;fillColor=#60a917;strokeColor=#2D7600;" edge="1" parent="1">
          <mxGeometry width="50" height="50" relative="1" as="geometry">
            <mxPoint x="360" y="140" as="sourcePoint" />
            <mxPoint x="910" y="440" as="targetPoint" />
          </mxGeometry>
        </mxCell>
        <mxCell id="5OR2ersFxcuu6v94mTMg-9" value="" style="endArrow=none;html=1;rounded=0;fillColor=#a20025;strokeColor=#6F0000;" edge="1" parent="1">
          <mxGeometry width="50" height="50" relative="1" as="geometry">
            <mxPoint x="680" y="600" as="sourcePoint" />
            <mxPoint x="1000" y="280" as="targetPoint" />
          </mxGeometry>
        </mxCell>
        <mxCell id="5OR2ersFxcuu6v94mTMg-11" value="" style="endArrow=none;html=1;rounded=0;fillColor=#0050ef;strokeColor=#001DBC;" edge="1" parent="1">
          <mxGeometry width="50" height="50" relative="1" as="geometry">
            <mxPoint x="450" y="600" as="sourcePoint" />
            <mxPoint x="920" y="170" as="targetPoint" />
          </mxGeometry>
        </mxCell>
        <mxCell id="5OR2ersFxcuu6v94mTMg-12" value="" style="endArrow=none;dashed=1;html=1;rounded=0;" edge="1" parent="1">
          <mxGeometry width="50" height="50" relative="1" as="geometry">
            <mxPoint x="551" y="430" as="sourcePoint" />
            <mxPoint x="551" y="640" as="targetPoint" />
          </mxGeometry>
        </mxCell>
        <mxCell id="5OR2ersFxcuu6v94mTMg-20" value="" style="endArrow=none;dashed=1;html=1;rounded=0;" edge="1" parent="1">
          <mxGeometry width="50" height="50" relative="1" as="geometry">
            <mxPoint x="546" y="424" as="sourcePoint" />
            <mxPoint x="320" y="424" as="targetPoint" />
          </mxGeometry>
        </mxCell>
        <mxCell id="5OR2ersFxcuu6v94mTMg-24" value="" style="endArrow=none;dashed=1;html=1;rounded=0; fillColor=#60a917;strokeColor=#6F0000;fillColor=#a20025;" edge="1" parent="1">
          <mxGeometry width="50" height="50" relative="1" as="geometry">
            <mxPoint x="324" y="240" as="sourcePoint" />
            <mxPoint x="748" y="240" as="targetPoint" />
          </mxGeometry>
        </mxCell>
        <mxCell id="5OR2ersFxcuu6v94mTMg-25" value="" style="endArrow=none;dashed=1;html=1;rounded=0; fillColor=#60a917;strokeColor=#6F0000;fillColor=#a20025;" edge="1" parent="1">
          <mxGeometry width="50" height="50" relative="1" as="geometry">
            <mxPoint x="745" y="532" as="sourcePoint" />
            <mxPoint x="320" y="532" as="targetPoint" />
          </mxGeometry>
        </mxCell>
      </root>
    </mxGraphModel>
  </diagram>
</mxfile>
